<?xml version="1.0" encoding="utf-8"?>
<!-- Generator: Adobe Illustrator 24.0.1, SVG Export Plug-In . SVG Version: 6.00 Build 0)  -->
<svg version="1.1" id="Layer_1" xmlns="http://www.w3.org/2000/svg" xmlns:xlink="http://www.w3.org/1999/xlink" x="0px" y="0px"
	 viewBox="350 0 1000 300"  xml:space="preserve">
<style type="text/css">
	.st0{font-family:'Arial-BoldMT';}
	.st1{font-size:12px;}
	.st2{font-family:'ArialMT';}
</style>
<g>
	<polyline points="831.34,303.91 831.34,249.87 825.34,249.87 825.34,303.91 	"/>
	<polygon points="757,156.99 756.55,279.64 808.69,279.64 808.69,273.64 762.57,273.64 763,157.01 757,156.99 	"/>
	<path d="M759.87,162.26h26.58v-3c0-1.88,0.31-3.43,0.81-4.72c0.75-1.92,1.91-3.26,3.3-4.17c1.39-0.91,3.03-1.38,4.68-1.38
		c2.2,0,4.37,0.82,5.98,2.44c0.81,0.81,1.5,1.83,2,3.11c0.5,1.28,0.81,2.84,0.81,4.72h6c0-1.88,0.31-3.43,0.81-4.72
		c0.75-1.92,1.91-3.26,3.3-4.17c1.39-0.91,3.03-1.38,4.68-1.38c2.2,0,4.37,0.82,5.98,2.44c0.81,0.81,1.5,1.83,2,3.11
		c0.5,1.28,0.81,2.84,0.81,4.72h6c0-1.88,0.31-3.43,0.81-4.72c0.75-1.92,1.91-3.26,3.3-4.17c1.39-0.91,3.03-1.38,4.68-1.38
		c2.2,0,4.37,0.82,5.98,2.44c0.81,0.81,1.5,1.83,2,3.11c0.5,1.28,0.81,2.84,0.81,4.72v3h23.57l-0.3,114.37l3,0.01v-3
		c0,0-46.79,0-49.13,0v6c2.34,0,49.13,0,49.13,0h2.99l0.33-123.38h-26.59v3h3c0-2.54-0.43-4.86-1.22-6.89
		c-1.18-3.05-3.2-5.45-5.61-7.02c-2.41-1.58-5.19-2.36-7.96-2.36c-3.69,0-7.42,1.39-10.23,4.2c-1.4,1.4-2.56,3.15-3.35,5.18
		c-0.79,2.03-1.22,4.35-1.22,6.89h6c0-2.54-0.43-4.86-1.22-6.89c-1.18-3.05-3.2-5.45-5.61-7.02c-2.41-1.58-5.19-2.36-7.96-2.36
		c-3.69,0-7.42,1.39-10.23,4.2c-1.4,1.4-2.56,3.15-3.35,5.18c-0.79,2.03-1.22,4.35-1.22,6.89h6c0-2.54-0.43-4.86-1.22-6.89
		c-1.18-3.05-3.2-5.45-5.61-7.02c-2.41-1.58-5.19-2.36-7.96-2.36c-3.69,0-7.42,1.39-10.23,4.2c-1.4,1.4-2.56,3.15-3.35,5.18
		c-0.79,2.03-1.22,4.35-1.22,6.89h3v-3h-23.58V162.26L759.87,162.26z"/>
	<polyline points="811.69,303.91 811.69,249.87 805.69,249.87 805.69,303.91 	"/>
	<path d="M505.32,335.54l-3-0.16c-0.25,4.58-1.25,8.47-2.77,11.74c-2.28,4.91-5.73,8.49-9.82,10.89c-4.09,2.4-8.85,3.6-13.65,3.6
		c-6.59,0-13.18-2.28-18.12-6.64c-2.47-2.18-4.54-4.87-6.04-8.11c-1.5-3.24-2.43-7.02-2.56-11.42l-3,0.09l3,0.16
		c0.25-4.58,1.25-8.47,2.76-11.75c2.28-4.91,5.73-8.49,9.82-10.9c4.09-2.4,8.85-3.6,13.65-3.6c6.59,0,13.18,2.28,18.12,6.64
		c2.47,2.18,4.54,4.88,6.04,8.11c1.5,3.24,2.43,7.03,2.56,11.42L505.32,335.54l-3-0.16L505.32,335.54l3-0.09
		c-0.15-5.14-1.26-9.76-3.11-13.77c-2.78-6.01-7.23-10.6-12.45-13.65c-5.22-3.05-11.19-4.58-17.16-4.58
		c-7.71,0-15.47,2.57-21.49,7.92c-3.01,2.67-5.56,6.04-7.42,10.06c-1.86,4.02-3.02,8.68-3.31,13.94l-0.01,0.13l0,0.13
		c0.15,5.14,1.26,9.76,3.11,13.76c2.78,6.01,7.23,10.6,12.45,13.64c5.22,3.05,11.19,4.58,17.16,4.58c7.71,0,15.47-2.57,21.49-7.92
		c3.01-2.67,5.56-6.04,7.42-10.05c1.86-4.02,3.02-8.68,3.31-13.94l0.01-0.13l0-0.13L505.32,335.54z"/>
	<polyline points="759.56,208.32 626.02,208.32 626.02,214.32 759.56,214.32 	"/>
	<polygon points="878,214.32 1236,214 1236.03,276.59 1236.03,307.92 1242.15,310.98 1222.5,320.81 1242.15,330.64 1222.5,340.47 
		1242.15,350.3 1222.5,360.13 1236.04,366.89 1236.04,394.52 1236.04,465 478.99,465 478.85,393.99 478.85,364.77 472.85,364.77 
		472.85,394.02 473.01,471 1242.04,471 1242.04,394.52 1242.04,363.19 1235.92,360.13 1255.57,350.3 1235.92,340.47 1255.57,330.64 
		1235.92,320.81 1255.57,310.98 1242.03,304.21 1242.03,276.59 1242,208 878,208.32 878,214.32 	"/>
	<path d="M460.92,336.72c1.44-3.38,2.78-5.57,3.81-6.71c0.51-0.58,0.93-0.89,1.2-1.03c0.28-0.14,0.38-0.15,0.49-0.15
		c0.13,0,0.39,0.04,0.87,0.35c0.42,0.27,0.95,0.74,1.53,1.38c1.01,1.12,2.13,2.73,3.27,4.5c1.72,2.67,3.47,5.7,5.43,8.24
		c0.99,1.27,2.03,2.43,3.29,3.38c0.63,0.47,1.32,0.88,2.09,1.19c0.77,0.31,1.64,0.5,2.54,0.5c1.15,0,2.33-0.33,3.35-0.9
		c1.55-0.87,2.81-2.21,4.01-3.96c1.2-1.76,2.34-3.98,3.51-6.81l-5.54-2.29c-1.41,3.42-2.73,5.64-3.74,6.79
		c-0.5,0.58-0.91,0.89-1.17,1.03c-0.26,0.14-0.35,0.14-0.43,0.14c-0.06,0-0.13-0.01-0.26-0.05c-0.24-0.08-0.7-0.34-1.24-0.84
		c-0.96-0.86-2.15-2.41-3.34-4.22c-0.9-1.36-1.83-2.87-2.78-4.39c-1.44-2.28-2.91-4.55-4.62-6.43c-0.86-0.94-1.79-1.79-2.89-2.46
		c-1.09-0.67-2.42-1.16-3.88-1.16c-1.15,0-2.32,0.32-3.35,0.88c-1.56,0.86-2.84,2.18-4.07,3.91c-1.22,1.75-2.39,3.95-3.59,6.75
		L460.92,336.72L460.92,336.72z"/>
	<polyline points="668.39,323.1 614.35,323.1 614.35,329.1 668.39,329.1 	"/>
	<polygon points="638.12,345.75 638.12,394.88 638.12,468 644.12,468 644.12,394.88 644.12,345.75 638.12,345.75 	"/>
	<path d="M644.12,326.1c0-1.17,0-13.45,0-25.44c0-5.99,0-11.92,0-16.34c0-2.21,0-4.05,0-5.33s0-2.01,0-2.02v-65.65h-6l0,65.65
		c0,0,0,0.73,0,2.02c0,8.99,0,45.07,0,47.11H644.12L644.12,326.1z"/>
	<polyline points="668.39,342.75 614.35,342.75 614.35,348.75 668.39,348.75 	"/>
	<polyline points="1142,322.93 1087.96,322.93 1087.96,328.93 1142,328.93 	"/>
	<polygon points="995.08,397.27 1117.73,397.72 1117.73,345.58 1111.73,345.58 1111.73,391.7 995.1,391.27 995.08,397.27 	"/>
	<path d="M1000.36,394.4v-26.58h-3c-1.88,0-3.43-0.31-4.72-0.81c-1.92-0.75-3.26-1.91-4.17-3.3c-0.91-1.39-1.38-3.03-1.38-4.68
		c0-2.2,0.82-4.37,2.44-5.98c0.81-0.81,1.83-1.5,3.11-2c1.28-0.5,2.84-0.81,4.72-0.81v-6c-1.88,0-3.43-0.31-4.72-0.81
		c-1.92-0.75-3.26-1.91-4.17-3.3c-0.91-1.39-1.38-3.03-1.38-4.68c0-2.2,0.82-4.37,2.44-5.98c0.81-0.81,1.83-1.5,3.11-2
		c1.28-0.5,2.84-0.81,4.72-0.81v-6c-1.88,0-3.43-0.31-4.72-0.81c-1.92-0.75-3.26-1.91-4.17-3.3c-0.91-1.39-1.38-3.03-1.38-4.68
		c0-2.2,0.82-4.37,2.44-5.98c0.81-0.81,1.83-1.5,3.11-2c1.28-0.5,2.84-0.81,4.72-0.81h3v-23.57l114.37,0.3l0.01-3h-3
		c0,0,0,0.73,0,2.02c0,8.99,0,45.07,0,47.11h6c0-1.17,0-13.45,0-25.44c0-6,0-11.92,0-16.34c0-2.21,0-4.05,0-5.33
		c0-1.28,0-2.01,0-2.02v-2.99l-123.38-0.33v26.59h3v-3c-2.54,0-4.86,0.43-6.89,1.22c-3.05,1.18-5.45,3.2-7.02,5.61
		c-1.58,2.41-2.36,5.19-2.36,7.96c0,3.69,1.39,7.42,4.2,10.23c1.4,1.4,3.15,2.56,5.18,3.35c2.03,0.79,4.35,1.22,6.89,1.22v-6
		c-2.54,0-4.86,0.43-6.89,1.22c-3.05,1.18-5.45,3.2-7.02,5.61c-1.58,2.41-2.36,5.19-2.36,7.96c0,3.69,1.39,7.42,4.2,10.23
		c1.4,1.4,3.15,2.56,5.18,3.35c2.03,0.79,4.35,1.22,6.89,1.22v-6c-2.54,0-4.86,0.43-6.89,1.22c-3.05,1.18-5.45,3.2-7.02,5.61
		c-1.58,2.41-2.36,5.19-2.36,7.96c0,3.69,1.39,7.42,4.2,10.23c1.4,1.4,3.15,2.56,5.18,3.35c2.03,0.79,4.35,1.22,6.89,1.22v-3h-3
		v23.58H1000.36L1000.36,394.4z"/>
	<polyline points="1142,342.58 1087.96,342.58 1087.96,348.58 1142,348.58 	"/>
	<polyline points="1057.91,276.49 1057.91,211.32 1051.91,211.32 1051.91,276.49 	"/>
	<polyline points="1051.91,394.4 1051.91,468 1057.91,468 1057.91,394.4 	"/>
	<text transform="matrix(1 0 0 1 360.9365 319.4521)" class="st0 st1">PS1:</text>
	<text transform="matrix(1 0 0 1 681.8789 335.7637)" class="st0 st1">C3: </text>
	<text transform="matrix(1 0 0 1 804.5884 175.835)" class="st0 st1">L1: </text>
	<text transform="matrix(1 0 0 1 845.1807 299.2598)" class="st0 st1">C1: </text>
	<text transform="matrix(1 0 0 1 1132.4951 370.3643)" class="st0 st1">C2: </text>
	<text transform="matrix(1 0 0 1 1004.1211 325.8184)" class="st0 st1">L2: </text>
	<text transform="matrix(1 0 0 1 1263.7061 319.4521)" class="st0 st1">R2: </text>
	<polygon points="626.02,208.31 615.08,208.31 583.74,208.31 580.69,214.44 570.86,194.79 561.03,214.44 551.2,194.79 
		541.37,214.44 531.54,194.79 524.77,208.33 497.15,208.33 473.01,208.32 472.85,276.08 472.85,306.31 478.85,306.31 478.85,276.09 
		478.99,214.32 497.15,214.33 528.48,214.33 531.54,208.2 541.37,227.85 551.2,208.2 561.03,227.85 570.86,208.2 580.69,227.85 
		587.45,214.31 615.08,214.31 626.02,214.31 626.02,208.31 	"/>
	<text transform="matrix(1 0 0 1 527.3789 249.8701)" class="st0 st1">R1: </text>
	<text transform="matrix(1 0 0 1 493.5298 201.4951)" class="st2 st1">→b1</text>
	<text transform="matrix(1 0 0 1 614.3501 201.4951)" class="st2 st1">→b2</text>
	<text transform="matrix(1 0 0 1 656.0518 276.8896)" class="st2 st1">↓b3</text>
	<text transform="matrix(1 0 0 1 656.0522 419.3691)" class="st2 st1">↓b4</text>
	<text transform="matrix(1 0 0 1 697.7358 201.4951)" class="st2 st1">→b5</text>
	<text transform="matrix(1 0 0 1 769.7358 181.1064)" class="st2 st1">↑b6</text>
	<text transform="matrix(1 0 0 1 769.7363 253.9023)" class="st2 st1">↓b7</text>
	<text transform="matrix(1 0 0 1 887.2097 253.9023)" class="st2 st1">↑b9</text>
	<text transform="matrix(1 0 0 1 887.21 181.1055)" class="st2 st1">↓b8</text>
	<text transform="matrix(1 0 0 1 935.7148 201.4951)" class="st2 st1">→b10</text>
	<text transform="matrix(1 0 0 1 1064.5571 243.9043)" class="st2 st1">B1</text>
	<text transform="matrix(1 0 0 1 1132.4951 201.4941)" class="st2 st1">→b17</text>
	<text transform="matrix(1 0 0 1 1147.3022 458.7793)" class="st2 st1">←b18</text>
	<text transform="matrix(1 0 0 1 1064.5576 450.8418)" class="st2 st1">↓b16</text>
	<text transform="matrix(1 0 0 1 1064.5571 268.71)" class="st2 st1">→b14</text>
	<text transform="matrix(1 0 0 1 1012.458 268.71)" class="st2 st1">←b12</text>
	<text transform="matrix(1 0 0 1 1012.458 412.7998)" class="st2 st1">→b13</text>
	<text transform="matrix(1 0 0 1 1074.4102 412.7988)" class="st2 st1">←b14</text>
	<text transform="matrix(1 0 0 1 818.8203 458.7793)" class="st2 st1">←b19</text>
	<text transform="matrix(1 0 0 1 550.9336 458.7793)" class="st2 st1">←b20</text>
</g>
</svg>
